<svg class="lds-gear" width="29px"  height="29px"  xmlns="http://www.w3.org/2000/svg" xmlns:xlink="http://www.w3.org/1999/xlink" viewBox="0 0 100 100" preserveAspectRatio="xMidYMid" style="background: none;"><g transform="translate(50 50)">
<g transform="rotate(128)">
<animateTransform attributeName="transform" type="rotate" values="0;360" keyTimes="0;1" dur="1.5s" repeatCount="indefinite"></animateTransform><path d="M24.49489742783178 -5 L32.49489742783178 -5 L32.49489742783178 5 L24.49489742783178 5 A25 25 0 0 1 23.713203435596427 7.917321694993697 L23.713203435596427 7.917321694993697 L30.641406665871937 11.917321694993696 L25.641406665871937 20.57757573283808 L18.713203435596427 16.57757573283808 A25 25 0 0 1 16.577575732838085 18.713203435596423 L16.577575732838085 18.713203435596423 L20.577575732838085 25.641406665871934 L11.9173216949937 30.641406665871934 L7.917321694993698 23.713203435596427 A25 25 0 0 1 5.0000000000000036 24.49489742783178 L5.0000000000000036 24.49489742783178 L5.0000000000000036 32.49489742783178 L-5.000000000000001 32.49489742783178 L-5.000000000000001 24.49489742783178 A25 25 0 0 1 -7.9173216949936895 23.713203435596427 L-7.9173216949936895 23.713203435596427 L-11.917321694993689 30.641406665871937 L-20.57757573283808 25.641406665871937 L-16.57757573283808 18.713203435596427 A25 25 0 0 1 -18.71320343559642 16.577575732838092 L-18.71320343559642 16.577575732838092 L-25.641406665871926 20.577575732838095 L-30.64140666587193 11.917321694993706 L-23.713203435596423 7.917321694993705 A25 25 0 0 1 -24.49489742783178 5.000000000000005 L-24.49489742783178 5.000000000000005 L-32.49489742783178 5.000000000000006 L-32.49489742783178 -4.999999999999998 L-24.49489742783178 -4.999999999999999 A25 25 0 0 1 -23.713203435596427 -7.917321694993689 L-23.713203435596427 -7.917321694993689 L-30.641406665871937 -11.917321694993687 L-25.64140666587194 -20.577575732838078 L-18.71320343559643 -16.577575732838078 A25 25 0 0 1 -16.577575732838092 -18.71320343559642 L-16.577575732838092 -18.71320343559642 L-20.577575732838095 -25.641406665871926 L-11.91732169499371 -30.64140666587193 L-7.917321694993706 -23.713203435596423 A25 25 0 0 1 -5.000000000000006 -24.49489742783178 L-5.000000000000006 -24.49489742783178 L-5.000000000000008 -32.49489742783178 L4.999999999999996 -32.49489742783179 L4.999999999999997 -24.494897427831784 A25 25 0 0 1 7.917321694993676 -23.713203435596434 L7.917321694993676 -23.713203435596434 L11.917321694993671 -30.641406665871948 L20.577575732838064 -25.64140666587195 L16.57757573283807 -18.713203435596437 A25 25 0 0 1 18.713203435596416 -16.577575732838095 L18.713203435596416 -16.577575732838095 L25.641406665871923 -20.5775757328381 L30.64140666587193 -11.917321694993712 L23.713203435596423 -7.917321694993708 A25 25 0 0 1 24.49489742783178 -5.000000000000008 M0 -15A15 15 0 1 0 0 15 A15 15 0 1 0 0 -15" fill="#0099ff"></path></g></g></svg>